<svg width="24" height="24" viewBox="0 0 24 24" fill="none" xmlns="http://www.w3.org/2000/svg">
<path d="M3 8C3 5.23858 5.23858 3 8 3H13.3108C14.7063 3 16.0383 3.58319 16.9849 4.6086L20.174 8.06352C21.0266 8.98713 21.5 10.198 21.5 11.4549V16.5C21.5 19.2614 19.2614 21.5 16.5 21.5H8C5.23858 21.5 3 19.2614 3 16.5V8Z" stroke="black" stroke-width="1.5"/>
<path d="M8 21V18C8 16.8954 8.89543 16 10 16H15C16.1046 16 17 16.8954 17 18V21" stroke="black" stroke-width="1.5" stroke-linecap="round" stroke-linejoin="round"/>
<path d="M8 8.5H13" stroke="black" stroke-width="1.5" stroke-linecap="round" stroke-linejoin="round"/>
<path d="M8 12H15" stroke="black" stroke-width="1.5" stroke-linecap="round" stroke-linejoin="round"/>
</svg>
